<svg width="375" height="219" viewBox="0 0 375 219" fill="none" xmlns="http://www.w3.org/2000/svg">
<g clip-path="url(#clip0)">
<g clip-path="url(#clip1)">
<path fill-rule="evenodd" clip-rule="evenodd" d="M145 56.0386V172.298H181.323V40.6302L145 50.6035V56.0386Z" fill="#E4F4FD"/>
<g clip-path="url(#clip2)">
<path fill-rule="evenodd" clip-rule="evenodd" d="M297.255 82.3958H314.579V96.5597H320.353V139.052H320.346V167.38H291.481V96.5597H297.255V82.3958Z" fill="#E4F4FD"/>
<path fill-rule="evenodd" clip-rule="evenodd" d="M231.969 87.2769H237.736V58.949H249.285V34.1609C249.285 32.2051 250.577 30.621 252.174 30.621C253.768 30.621 255.06 32.2051 255.06 34.1609V58.949H266.616L266.609 87.2769H272.391V172.261H231.969V143.933H231.962L231.969 87.2769Z" fill="#E4F4FD"/>
<path fill-rule="evenodd" clip-rule="evenodd" d="M264 30.5833H246.803L240 60.1954H264V30.5833Z" fill="#E4F4FD"/>
<path fill-rule="evenodd" clip-rule="evenodd" d="M307.03 80.1949H295.481V94.3589H289.707V172.261H278.158V37.703H307.03V80.1949Z" fill="#E4F4FD"/>
</g>
<g clip-path="url(#clip3)">
<rect x="206" y="83.1742" width="31.5" height="81.9622" fill="#DAF0FB"/>
<rect x="206" y="112.258" width="53" height="52.8788" fill="#DAF0FB"/>
<path fill-rule="evenodd" clip-rule="evenodd" d="M261.702 165.072V114.541H263.782L261.936 109.837H241.597V80.3306H244.137V75.6261H221.028V73.1272H203.928V75.6261H200V80.3306H202.54V165.072H200V168.309H264.706V165.072H261.702ZM212.632 160.843H208.747V156.729H212.637V160.843H212.632ZM212.632 152.822H208.747V148.708H212.637V152.822H212.632ZM212.632 144.797H208.747V140.681H212.637V144.797H212.632ZM212.632 136.775H208.747V132.665H212.637V136.775H212.632ZM212.632 128.754H208.747V124.64H212.637V128.754H212.632ZM212.632 120.728H208.747V116.614H212.637V120.728H212.632ZM212.632 112.708H208.747V108.592H212.637V112.708H212.632ZM212.632 104.686H208.747V100.571H212.637V104.686H212.632ZM212.632 96.66H208.747V92.5456H212.637V96.66H212.632ZM212.632 88.6393H208.747V84.5237H212.637V88.6393H212.632ZM220.222 160.843H216.331V156.729H220.222V160.843ZM220.222 152.822H216.331V148.708H220.222V152.822ZM220.222 144.797H216.331V140.681H220.222V144.797ZM220.222 136.775H216.331V132.665H220.222V136.775ZM220.222 128.754H216.331V124.64H220.222V128.754ZM220.222 120.728H216.331V116.614H220.222V120.728ZM220.222 112.708H216.331V108.592H220.222V112.708ZM220.222 104.686H216.331V100.571H220.222V104.686ZM220.222 96.66H216.331V92.5456H220.222V96.66ZM220.222 88.6393H216.331V84.5237H220.222V88.6393ZM227.806 160.843H223.916V156.729H227.806V160.843ZM227.806 152.822H223.916V148.708H227.806V152.822ZM227.806 144.797H223.916V140.681H227.806V144.797ZM227.806 136.775H223.916V132.665H227.806V136.775ZM227.806 128.754H223.916V124.64H227.806V128.754ZM227.806 120.728H223.916V116.614H227.806V120.728ZM227.806 112.708H223.916V108.592H227.806V112.708ZM227.806 104.686H223.916V100.571H227.806V104.686ZM227.806 96.66H223.916V92.5456H227.806V96.66ZM227.806 88.6393H223.916V84.5237H227.806V88.6393ZM235.395 160.843H231.505V156.729H235.395V160.843ZM235.395 152.822H231.505V148.708H235.395V152.822ZM235.395 144.797H231.505V140.681H235.395V144.797ZM235.395 136.775H231.505V132.665H235.395V136.775ZM235.395 128.754H231.505V124.64H235.395V128.754ZM235.395 120.728H231.505V116.614H235.395V120.728ZM235.395 112.708H231.505V108.592H235.395V112.708ZM235.395 104.686H231.505V100.571H235.395V104.686ZM235.395 96.66H231.505V92.5456H235.395V96.66ZM235.395 88.6393H231.505V84.5237H235.395V88.6393ZM246.448 158.216H241.827V148.445H246.448V158.216ZM246.448 143.552H241.827V133.781H246.448V143.552ZM246.448 128.892H241.827V119.117H246.448V128.892ZM255.692 158.216H251.071V148.445H255.692V158.216ZM255.692 143.552H251.071V133.781H255.692V143.552ZM255.692 128.892H251.071V119.117H255.692V128.892Z" fill="#D1ECF9"/>
</g>
<g clip-path="url(#clip4)">
<path fill-rule="evenodd" clip-rule="evenodd" d="M41.5 41.6878H67.2786L93.0572 108.621H115.355V114.459H93.0572H41.5V41.6878Z" fill="#F2FAFC"/>
<path fill-rule="evenodd" clip-rule="evenodd" d="M79.032 49.2555V165.305H115.355V33.8751H79.032V49.2555Z" fill="#E4F4FD"/>
<path fill-rule="evenodd" clip-rule="evenodd" d="M43.4128 165.305H79.7374V60.441L43.4128 99.5901V165.305Z" fill="#E4F4FD"/>
</g>
<g clip-path="url(#clip5)">
<rect x="351.032" y="40.574" width="24.2021" height="130.566" fill="#DAF0FB"/>
<path fill-rule="evenodd" clip-rule="evenodd" d="M377.918 43.2482V41.2931L346.92 21.1467V175.471H377.929V173.831H375.897V171.82H377.929V169.809H375.897V167.805H377.929V165.793H375.897V163.782H377.929V161.771H375.897V159.757H377.929V157.746H375.897V155.735H377.929V153.724H375.897V151.722H377.929V149.728H375.897V147.717H377.929V145.696H375.897V143.692H377.929V141.681H375.897V139.679H377.929V137.668H375.897V135.657H377.929V133.653H375.897V131.642H377.929V129.64H375.897V127.619H377.929V125.615H375.897V123.604H377.929V121.593H375.897V119.582H377.929V117.568H375.897V115.567H377.929V113.565H375.897V111.552H377.929V109.531H375.897V107.529H377.929V105.528H375.897V103.516H377.929V101.513H375.897V99.5013H377.929V97.4901H375.897V95.4789H377.929V93.475H375.897V91.454H377.929V89.4525H375.897V87.4413H377.929V85.4374H375.897V83.4262H377.929V81.415H375.897V79.4037H377.929V77.3998H375.897V75.3984H377.929V73.3872H375.897V71.3759H377.929V69.372H375.897V67.3608H377.929V65.3496H375.897V63.3384H377.929V61.3247H375.897V59.3135H377.929V57.3023H375.897V55.2911H377.929V53.2872H375.897V51.2759H377.929V49.2647H375.897V47.2535H377.929V45.2423H375.897V43.2286L377.918 43.2482ZM373.233 44.3636H351.37V43.3629H373.233V44.3636ZM373.233 48.4934H351.37V47.4903H373.233V48.4934ZM373.233 52.6111H351.37V51.6103H373.233V52.6111ZM373.233 56.7384H351.37V55.728H373.233V56.7384ZM373.233 60.8585H351.37V59.8578H373.233V60.8585ZM373.233 64.9859H351.37V63.9852H373.233V64.9859ZM373.233 69.106H351.37V68.1053H373.233V69.106ZM373.233 73.2236H351.37V72.2229H373.233V73.2236ZM373.233 77.3535H351.37V76.343H373.233V77.3535ZM373.233 81.4711H351.37V80.4704H373.233V81.4711ZM373.233 85.6009H351.37V84.5904H373.233V85.6009ZM373.233 89.7186H351.37V88.7081H373.233V89.7186ZM373.233 93.8386H351.37V92.8281H373.233V93.8386ZM373.233 97.9563H351.37V96.9555H373.233V97.9563ZM373.233 102.086H351.37V101.076H373.233V102.086ZM373.233 106.204H351.37V105.203H373.233V106.204ZM373.233 110.331H351.37V109.321H373.233V110.331ZM373.233 114.461H351.37V113.441H373.233V114.461ZM373.233 118.579H351.37V117.568H373.233V118.579ZM373.233 122.699H351.37V121.698H373.233V122.699ZM373.233 126.816H351.37V125.816H373.233V126.816ZM373.233 130.946H351.37V129.945H373.233V130.946ZM373.233 135.064H351.37V134.063H373.233V135.064ZM373.233 139.194H351.37V138.193H373.233V139.194ZM373.233 143.311H351.37V142.301H373.233V143.311ZM373.233 147.431H351.37V146.431H373.233V147.431ZM373.233 151.559H351.37V150.558H373.233V151.559ZM373.233 155.679H351.37V154.676H373.233V155.679ZM373.233 159.796H351.37V158.796H373.233V159.796ZM373.233 163.926H351.37V162.923H373.233V163.926ZM373.233 168.054H351.37V167.043H373.233V168.054ZM373.233 172.171H351.37V171.171H373.233V172.171Z" fill="#D1ECF9"/>
<path fill-rule="evenodd" clip-rule="evenodd" d="M358.172 1.43967H360.3V15.4084H358.172V1.43967Z" fill="#D1ECF9"/>
<path fill-rule="evenodd" clip-rule="evenodd" d="M361.403 40.8464H363.531V174.556H361.403V40.8464Z" fill="#D1ECF9"/>
<path fill-rule="evenodd" clip-rule="evenodd" d="M365.99 30.0825V16.7142H354.459V22.5868L365.99 30.0825Z" fill="#D1ECF9"/>
<g clip-path="url(#clip6)">
<rect x="317.149" y="91.213" width="24.2021" height="78.8963" fill="#DAF0FB"/>
<path fill-rule="evenodd" clip-rule="evenodd" d="M321.441 77.1223V60.5772H332.972V67.8466L321.441 77.1223Z" fill="#D1ECF9"/>
<path fill-rule="evenodd" clip-rule="evenodd" d="M326.222 40.8778H328.349V58.1692H326.222V40.8778Z" fill="#D1ECF9"/>
<path fill-rule="evenodd" clip-rule="evenodd" d="M313.012 173.136V175.471H344.01V63.7164L313.012 88.6549V91.072H315.044V93.5646H313.012V96.0422H315.044V98.5318H313.012V101.021H315.044V103.514H313.012V105.992H315.044V108.481H313.012V110.971H315.044V113.463H313.012V115.953H315.044V118.443H313.012V120.932H315.044V123.422H313.012V125.915H315.044V128.404H313.012V130.894H315.044V133.383H313.012V135.876H315.044V138.366H313.012V140.855H315.044V143.345H313.012V145.835H315.044V148.315H313.012V150.805H315.044V153.282H313.012V155.772H315.044V158.264H313.012V160.754H315.044V163.232H313.012V165.721H315.044V168.214H313.012V170.703H315.044V173.181H313.012V173.136ZM317.697 93.3622H339.56V94.6131H317.697V93.3622ZM317.697 98.4744H339.56V99.7252H317.697V98.4744ZM317.697 103.571H339.56V104.81H317.697V103.571ZM317.697 108.672H339.56V109.91H317.697V108.672ZM317.697 113.781H339.56V115.019H317.697V113.781ZM317.697 118.881H339.56V120.12H317.697V118.881ZM317.697 123.99H339.56V125.229H317.697V123.99ZM317.697 129.087H339.56V130.329H317.697V129.087ZM317.697 134.199H339.56V135.438H317.697V134.199ZM317.697 139.296H339.56V140.538H317.697V139.296ZM317.697 144.396H339.56V145.635H317.697V144.396ZM317.697 149.505H339.56V150.744H317.697V149.505ZM317.697 154.606H339.56V155.844H317.697V154.606ZM317.697 159.715H339.56V160.953H317.697V159.715ZM317.697 164.815H339.56V166.054H317.697V164.815ZM317.697 169.924H339.56V171.163H317.697V169.924Z" fill="#D1ECF9"/>
</g>
</g>
<g clip-path="url(#clip7)">
<path fill-rule="evenodd" clip-rule="evenodd" d="M27.5 95.4637H48.7459V54.9193H10.2377V64.65H27.5V95.4637Z" fill="#D1ECF9"/>
<rect x="-12.5" y="68.445" width="38.5" height="103.968" fill="#DAF0FB"/>
<rect x="27.5" y="97.8008" width="38.5" height="74.6125" fill="#DAF0FB"/>
<path fill-rule="evenodd" clip-rule="evenodd" d="M-14.9918 64.65V170.065H-4.36887V150.604H10.2377V64.65H-14.9918ZM-3.04111 144.117H-9.68046V134.386H-3.04111V144.117ZM-3.04111 131.143H-9.68046V123.034H-3.04111V131.143ZM-3.04111 119.79H-9.68046V110.06H-3.04111V119.79ZM-3.04111 106.816H-9.68046V97.0855H-3.04111V106.816ZM-3.04111 93.8419H-9.68046V84.1113H-3.04111V93.8419ZM-3.04111 80.8677H-9.68046V72.7589H-3.04111V80.8677ZM8.90971 144.117H2.27037V134.386H8.90971V144.117ZM8.90971 131.143H2.27037V123.034H8.90971V131.143ZM8.90971 119.79H2.27037V110.06H8.90971V119.79ZM8.90971 106.816H2.27037V97.0855H8.90971V106.816ZM8.90971 93.8419H2.27037V84.1113H8.90971V93.8419ZM2.27037 80.8677V72.7589H8.90971V80.8677H2.27037Z" fill="#D1ECF9"/>
<path fill-rule="evenodd" clip-rule="evenodd" d="M15.5492 170.065H26.1721V95.4637H27.5V64.65H10.2377V150.604H15.5492V170.065ZM14.2212 72.7589H22.1884V80.8677H14.2212V72.7589ZM14.2212 84.1113H22.1884V93.8419H14.2212V84.1113ZM14.2212 97.0855H22.1884V106.816H14.2212V97.0855ZM14.2212 110.06H22.1884V119.79H14.2212V110.06ZM14.2212 123.034H22.1884V131.143H14.2212V123.034ZM14.2212 144.117V134.386H22.1884V144.117H14.2212Z" fill="#D1ECF9"/>
<path fill-rule="evenodd" clip-rule="evenodd" d="M48.7459 95.4637V105.194H52.7295V114.925H48.7459V119.79H52.7295V129.521H48.7459V132.764H52.7295V142.495H48.7459V147.36H54.0574V170.065H69.9918V95.4637H48.7459ZM66.0082 157.091H58.0409V147.36H66.0082V157.091ZM66.0082 142.495H58.0409V132.765H66.0082V142.495ZM66.0082 129.521H58.0409V119.79H66.0082V129.521ZM66.0082 114.925H58.0409V105.194H66.0082V114.925Z" fill="#D1ECF9"/>
<path fill-rule="evenodd" clip-rule="evenodd" d="M44.7623 142.495V132.764H48.7459V129.521H44.7623V119.79H48.7459V114.925H44.7623V105.194H48.7459V95.4637H27.5V170.065H43.4344V147.36H48.7459V142.495H44.7623ZM39.4508 157.091H31.4835V147.36H39.4508V157.091ZM39.4508 142.495H31.4835V132.765H39.4508V142.495ZM39.4508 129.521H31.4835V119.79H39.4508V129.521ZM39.4508 114.925H31.4835V105.194H39.4508V114.925Z" fill="#D1ECF9"/>
<path fill-rule="evenodd" clip-rule="evenodd" d="M26.1721 95.4637H27.5V170.065H26.1721V95.4637Z" fill="#D1ECF9"/>
<path fill-rule="evenodd" clip-rule="evenodd" d="M-25.6148 169.112H80.6147V175.439H-25.6148V169.112Z" fill="#D1ECF9"/>
</g>
<g clip-path="url(#clip8)">
<rect x="115.224" y="80.5398" width="27.7586" height="73.031" fill="#DAF0FB"/>
<path fill-rule="evenodd" clip-rule="evenodd" d="M142.491 68.5091H138.993V53.7618H131.995V35.3265C131.995 33.2902 130.429 31.6408 128.494 31.6408C126.562 31.6408 124.996 33.2902 124.996 35.3265V53.7618H117.998V68.5091H114.498V75.8828H111V134.872H111.009V164.367H146V75.8828H142.491V68.5091ZM124.996 149.619H117.998V142.246H124.996V149.619ZM124.996 134.872H117.998V127.498H124.996V134.872ZM124.996 120.125H117.998V112.751H124.996V120.125ZM124.996 105.377H117.998V98.0037H124.996V105.377ZM124.996 90.6301H117.998V83.2564H124.996V90.6301ZM138.993 149.619H131.995V142.246H138.993V149.619ZM138.993 134.872H131.995V127.498H138.993V134.872ZM138.993 120.125H131.995V112.751H138.993V120.125ZM138.993 105.377H131.995V98.0037H138.993V105.377ZM138.993 90.6301H131.995V83.2564H138.993V90.6301Z" fill="#D1ECF9"/>
</g>
</g>
<g clip-path="url(#clip9)">
<path fill-rule="evenodd" clip-rule="evenodd" d="M75.7469 163.5H80.5594V156.281H75.7469V163.5Z" fill="#564131"/>
<path fill-rule="evenodd" clip-rule="evenodd" d="M71.7363 149.062L71.073 151.112C70.7081 152.427 71.7789 153.875 72.7753 153.875H82.9978C82.9978 153.875 82.1333 153.649 82.1333 151.808C82.1333 150.53 82.9978 149.062 82.9978 149.062H71.7363Z" fill="#85C86F"/>
<path fill-rule="evenodd" clip-rule="evenodd" d="M74.0586 141.843L72.5124 146.656H83.8622L82.312 141.843H74.0586Z" fill="#85C86F"/>
<path fill-rule="evenodd" clip-rule="evenodd" d="M79.9901 134.625C79.5107 133.31 79.1816 132.218 78.1853 132.218C77.1889 132.218 76.8639 133.233 76.3845 134.625L74.8347 139.437H81.5399L79.9901 134.625Z" fill="#85C86F"/>
<path fill-rule="evenodd" clip-rule="evenodd" d="M94.9969 163.5H99.8094V156.281H94.9969V163.5Z" fill="#564131"/>
<path fill-rule="evenodd" clip-rule="evenodd" d="M109.166 151.468L108.231 149.062H86.6014L85.6666 151.468C85.1035 152.71 85.8791 153.875 87.2087 153.875H107.662C108.991 153.875 109.842 152.784 109.166 151.468Z" fill="#85C86F"/>
<path fill-rule="evenodd" clip-rule="evenodd" d="M105.434 141.843H89.4124L87.5377 146.656H107.301L105.434 141.843Z" fill="#85C86F"/>
<path fill-rule="evenodd" clip-rule="evenodd" d="M102.639 134.625H92.2198L90.3487 139.437H104.505L102.639 134.625Z" fill="#85C86F"/>
<path fill-rule="evenodd" clip-rule="evenodd" d="M101.706 132.218H93.154L95.0292 127.406C95.5641 126.099 96.6832 125 97.4352 125C98.1873 125 99.2401 125.94 99.8412 127.406L101.706 132.218Z" fill="#85C86F"/>
</g>
<g clip-path="url(#clip10)">
<path fill-rule="evenodd" clip-rule="evenodd" d="M254.074 144.843C254.074 143.655 254.305 142.123 254.709 140.454C253.385 137.625 251.427 135.218 249.244 135.218C245.24 135.218 242 143.266 242 147.25C242 151.24 245.24 154.468 249.244 154.468C252.017 154.468 254.4 152.899 255.615 150.615C254.663 148.894 254.074 146.945 254.074 144.843Z" fill="#85C86F"/>
<path fill-rule="evenodd" clip-rule="evenodd" d="M246.829 156.687V166.5H251.659V156.687C250.866 156.801 250.065 156.875 249.244 156.875C248.423 156.875 247.622 156.801 246.829 156.687Z" fill="#564131"/>
<path fill-rule="evenodd" clip-rule="evenodd" d="M266.147 128C261.318 128 256.488 139.528 256.488 144.843C256.488 150.16 260.813 154.468 266.147 154.468C271.482 154.468 275.806 150.16 275.806 144.843C275.806 139.528 270.977 128 266.147 128Z" fill="#85C86F"/>
<path fill-rule="evenodd" clip-rule="evenodd" d="M266.147 156.875C266.968 156.875 267.769 156.801 268.562 156.687V166.5H263.733V156.687C264.525 156.801 265.326 156.875 266.147 156.875Z" fill="#564131"/>
</g>
<g clip-path="url(#clip11)">
<path fill-rule="evenodd" clip-rule="evenodd" d="M331.296 129C326.484 129 321.671 140.533 321.671 145.85C321.671 151.169 325.981 155.479 331.296 155.479C336.612 155.479 340.921 151.169 340.921 145.85C340.921 140.533 336.109 129 331.296 129Z" fill="#85C86F"/>
<path fill-rule="evenodd" clip-rule="evenodd" d="M328.89 157.698V172.049H333.703V157.698C332.912 157.865 332.114 157.974 331.296 157.974C330.478 157.974 329.68 157.865 328.89 157.698Z" fill="#564131"/>
<path fill-rule="evenodd" clip-rule="evenodd" d="M320.458 140.707L319.654 138.629H309.235L307.364 143.443H319.503C319.702 142.478 320.045 141.572 320.458 140.707Z" fill="#85C86F"/>
<path fill-rule="evenodd" clip-rule="evenodd" d="M319.264 145.85H306.43L304.554 150.665H320.279C319.636 149.188 319.264 147.568 319.264 145.85Z" fill="#85C86F"/>
<path fill-rule="evenodd" clip-rule="evenodd" d="M321.723 153.072H303.62L302.686 155.479C302.122 156.721 302.899 157.887 304.228 157.887H324.681C325.517 157.887 326.165 157.455 326.359 156.806C324.508 155.969 322.936 154.671 321.723 153.072Z" fill="#85C86F"/>
<path fill-rule="evenodd" clip-rule="evenodd" d="M312.046 167.516H316.859V160.294H312.046V167.516Z" fill="#564131"/>
<path fill-rule="evenodd" clip-rule="evenodd" d="M318.726 136.221H310.171L312.046 131.407C312.581 130.1 313.701 129 314.453 129C315.204 129 316.257 129.941 316.859 131.407L318.726 136.221Z" fill="#85C86F"/>
</g>
<path fill-rule="evenodd" clip-rule="evenodd" d="M0 173.223C0 173.223 19.1975 166.685 72.6814 163.33C126.165 159.974 151.014 167.883 187.902 167.883C219.066 167.883 246.279 160.457 295.682 163.33C345.085 166.203 375 173.223 375 173.223V177.5H0V173.223Z" fill="#85C86F"/>
<path fill-rule="evenodd" clip-rule="evenodd" d="M139 137.998C139 142.028 139.555 145.925 140.578 149.626C140.985 151.107 141.472 152.562 142.035 153.973L143.36 156.971L182.632 214.895L221.954 156.865L223.144 154.161C223.735 152.688 224.249 151.17 224.678 149.619C225.708 145.918 226.256 142.023 226.256 137.991C226.263 113.971 206.725 94.5 182.632 94.5C158.538 94.5 139 113.971 139 137.998Z" fill="url(#paint0_linear)" stroke="url(#paint1_linear)" stroke-width="5.04"/>
<ellipse cx="182.389" cy="138.477" rx="39.0496" ry="38.9302" fill="white"/>
<ellipse cx="182.389" cy="137.756" rx="37.6033" ry="37.4884" stroke="#96C11F" stroke-width="3.6" stroke-dasharray="0.72 1.44"/>
<ellipse cx="182.389" cy="137.756" rx="39.7727" ry="39.6512" stroke="#469A36" stroke-width="1.44"/>
<g clip-path="url(#clip12)">
<path d="M175.88 134.43V135.878H175.736V134.719L175.156 135.692H175.094L174.515 134.74V135.899H174.37V134.45H174.494L175.115 135.526L175.736 134.45H175.88V134.43Z" fill="#5E7D31"/>
<path d="M178.57 135.505H177.763L177.598 135.899H177.432L178.094 134.45H178.239L178.901 135.899H178.736L178.57 135.505ZM178.529 135.381L178.177 134.595L177.825 135.381H178.529Z" fill="#5E7D31"/>
<path d="M181.467 135.878L181.136 135.423C181.095 135.423 181.053 135.423 181.012 135.423H180.619V135.878H180.474V134.43H181.012C181.198 134.43 181.343 134.471 181.446 134.554C181.55 134.636 181.612 134.761 181.612 134.926C181.612 135.03 181.591 135.133 181.529 135.216C181.467 135.299 181.384 135.34 181.281 135.381L181.633 135.878H181.467ZM181.343 135.195C181.426 135.133 181.446 135.05 181.446 134.926C181.446 134.802 181.405 134.719 181.343 134.657C181.26 134.595 181.157 134.554 181.012 134.554H180.619V135.278H181.012C181.157 135.299 181.26 135.257 181.343 135.195Z" fill="#5E7D31"/>
<path d="M183.743 135.216L183.454 135.526V135.899H183.309V134.45H183.454V135.319L184.302 134.45H184.467L183.847 135.112L184.509 135.899H184.323L183.743 135.216Z" fill="#5E7D31"/>
<path d="M187.116 135.754V135.878H186.081V134.43H187.075V134.554H186.226V135.071H186.971V135.195H186.226V135.733H187.116V135.754Z" fill="#5E7D31"/>
<path d="M189.082 134.574H188.585V134.45H189.765V134.574H189.247V135.899H189.102V134.574H189.082Z" fill="#5E7D31"/>
<path d="M197.4 149.224L166.88 150.259V144.63L197.11 144.134L197.4 149.224Z" fill="#FFD361"/>
<path d="M198.083 150.259V156.797H195.02C194.441 155.68 193.282 154.914 191.916 154.914C190.571 154.914 189.392 155.68 188.833 156.797H175.694C175.239 155.742 174.204 155.018 172.984 155.018C171.763 155.018 170.728 155.763 170.273 156.797H166.197V151.169L198.083 150.259Z" fill="#FFD361"/>
<path d="M169.714 146.493C168.535 146.534 168.618 148.417 169.714 148.231C170.811 148.024 170.438 146.472 169.714 146.493Z" fill="#FFB73B"/>
<path d="M169.507 153.259C168.328 153.3 168.411 155.183 169.507 154.997C170.625 154.79 170.252 153.238 169.507 153.259Z" fill="#FFB73B"/>
<path d="M195.02 145.624C193.841 145.665 193.924 147.548 195.02 147.362C196.117 147.155 195.744 145.603 195.02 145.624Z" fill="#FFB73B"/>
<path d="M195.041 152.39C193.861 152.431 193.944 154.314 195.041 154.128C196.158 153.921 195.786 152.369 195.041 152.39Z" fill="#FFB73B"/>
<path d="M168.08 143.679L178.777 143.699C178.777 143.699 177.453 139.375 172.88 139.375C168.328 139.354 168.08 143.679 168.08 143.679Z" fill="#FFB73B"/>
<path d="M194.586 143.368L187.84 143.534C188.875 140.389 191.006 139.002 192.806 138.402C193.158 138.92 193.737 139.251 194.42 139.251C195.062 139.251 195.62 138.94 195.972 138.464C196.179 141.754 194.586 143.368 194.586 143.368Z" fill="#99C76E"/>
<path d="M177.018 140.14C177.018 140.14 179.046 141.692 179.522 143.699L187.178 143.534C187.178 143.534 187.737 141.237 189.516 139.727C189.516 139.727 182.812 134.285 177.018 140.14Z" fill="#FFD361"/>
<path d="M203.545 145.582L198.496 146.493L198.372 144.093L203.545 143.927V145.582Z" fill="#FFB73B"/>
<path d="M174.495 159.481C175.327 158.648 175.327 157.299 174.495 156.467C173.663 155.634 172.313 155.634 171.481 156.467C170.649 157.299 170.649 158.648 171.481 159.481C172.313 160.313 173.663 160.313 174.495 159.481Z" fill="#FFB73B"/>
<path d="M191.937 160.936C193.343 160.936 194.482 159.796 194.482 158.39C194.482 156.985 193.343 155.845 191.937 155.845C190.532 155.845 189.392 156.985 189.392 158.39C189.392 159.796 190.532 160.936 191.937 160.936Z" fill="#FFB73B"/>
<path d="M157.506 141.361L158.727 142.003L160.01 139.561L161.21 140.202L159.927 142.644L161.81 143.637L160.982 145.189L155.478 142.292L157.754 137.968L158.955 138.609L157.506 141.361Z" fill="#5E7D31"/>
<path d="M165.514 136.975L163.61 138.795L164.107 140.016L162.824 141.258L160.465 134.885L161.707 133.685L168.018 136.25L166.693 137.533L165.514 136.975ZM164.231 136.416L162.265 135.547L163.072 137.533L164.231 136.416Z" fill="#5E7D31"/>
<path d="M169.859 133.623L169.011 134.057L169.756 135.526L168.183 136.312L165.369 130.767L167.914 129.484C168.411 129.236 168.887 129.091 169.342 129.07C169.797 129.05 170.211 129.153 170.563 129.36C170.914 129.567 171.204 129.877 171.411 130.291C171.618 130.684 171.701 131.098 171.659 131.491C171.618 131.884 171.473 132.257 171.204 132.609L173.294 133.747L171.618 134.595L169.859 133.623ZM169.28 130.622C169.052 130.56 168.762 130.622 168.431 130.788L167.562 131.222L168.39 132.857L169.259 132.422C169.59 132.257 169.797 132.071 169.88 131.843C169.963 131.615 169.963 131.388 169.818 131.119C169.714 130.829 169.528 130.684 169.28 130.622Z" fill="#5E7D31"/>
<path d="M179.253 132.547L178.653 129.298L177.556 132.236L176.791 132.381L174.763 130.105L175.322 133.271L173.728 133.56L172.611 127.415L174.039 127.167L176.832 130.312L178.301 126.401L179.729 126.153L180.846 132.278L179.253 132.547Z" fill="#5E7D31"/>
<path d="M182.46 132.381C182.005 132.215 181.633 132.029 181.343 131.802L182.026 130.56C182.295 130.767 182.605 130.933 182.957 131.077C183.309 131.222 183.681 131.305 184.033 131.326C184.716 131.367 185.067 131.243 185.088 130.891C185.109 130.705 185.005 130.581 184.84 130.477C184.654 130.374 184.343 130.27 183.929 130.146C183.474 130.001 183.081 129.877 182.791 129.732C182.481 129.588 182.233 129.381 182.026 129.112C181.819 128.843 181.736 128.491 181.778 128.056C181.798 127.684 181.943 127.353 182.171 127.063C182.398 126.774 182.729 126.567 183.143 126.401C183.578 126.256 184.074 126.215 184.674 126.256C185.088 126.298 185.481 126.36 185.874 126.484C186.268 126.608 186.599 126.774 186.888 126.96L186.247 128.222C185.688 127.85 185.109 127.663 184.571 127.601C184.219 127.581 183.971 127.601 183.805 127.705C183.64 127.787 183.557 127.932 183.536 128.098C183.516 128.263 183.598 128.388 183.785 128.491C183.971 128.594 184.261 128.698 184.674 128.822C185.13 128.967 185.523 129.091 185.833 129.236C186.143 129.381 186.392 129.588 186.599 129.857C186.806 130.126 186.888 130.477 186.868 130.912C186.847 131.284 186.702 131.615 186.475 131.905C186.247 132.195 185.916 132.402 185.481 132.567C185.047 132.712 184.55 132.774 183.95 132.733C183.412 132.65 182.916 132.547 182.46 132.381Z" fill="#5E7D31"/>
<path d="M193.034 128.47C193.365 128.781 193.592 129.132 193.717 129.526C193.82 129.919 193.82 130.353 193.675 130.788C193.53 131.222 193.303 131.595 192.992 131.843C192.682 132.112 192.289 132.257 191.834 132.319C191.378 132.381 190.882 132.319 190.344 132.153L189.309 131.822L188.813 133.374L187.137 132.857L188.999 126.918L191.71 127.767C192.268 127.932 192.703 128.16 193.034 128.47ZM191.523 130.808C191.751 130.705 191.896 130.519 191.979 130.25C192.061 129.981 192.041 129.732 191.916 129.526C191.792 129.319 191.544 129.153 191.213 129.05L190.282 128.76L189.744 130.498L190.675 130.788C191.006 130.912 191.296 130.912 191.523 130.808Z" fill="#5E7D31"/>
<path d="M196.841 135.795L194.606 134.388L193.551 135.154L192.02 134.202L197.648 130.395L199.117 131.326L198.145 138.071L196.593 137.099L196.841 135.795ZM197.089 134.409L197.462 132.298L195.724 133.56L197.089 134.409Z" fill="#5E7D31"/>
<path d="M199.179 138.982C199.055 138.402 199.096 137.844 199.262 137.306C199.448 136.768 199.779 136.292 200.255 135.878C200.731 135.485 201.248 135.236 201.828 135.133C202.386 135.05 202.945 135.112 203.504 135.319C204.042 135.547 204.538 135.899 204.952 136.395C205.325 136.83 205.573 137.285 205.718 137.761C205.863 138.237 205.883 138.713 205.78 139.189L204.29 138.982C204.394 138.361 204.269 137.823 203.897 137.388C203.669 137.14 203.421 136.954 203.152 136.85C202.862 136.747 202.573 136.726 202.283 136.788C201.973 136.85 201.704 136.995 201.435 137.223C201.166 137.45 200.979 137.699 200.855 137.988C200.752 138.278 200.71 138.568 200.772 138.857C200.835 139.147 200.959 139.437 201.186 139.685C201.559 140.12 202.055 140.347 202.697 140.347L202.635 141.858C202.159 141.878 201.683 141.775 201.228 141.547C200.772 141.32 200.379 141.009 200.007 140.575C199.572 140.099 199.303 139.561 199.179 138.982Z" fill="#5E7D31"/>
<path d="M204.89 147.093L203.607 147.569L201.869 142.872L207.704 140.699L209.401 145.272L208.118 145.748L207.021 142.81L206.028 143.182L206.98 145.769L205.738 146.224L204.787 143.637L203.711 144.03L204.89 147.093Z" fill="#5E7D31"/>
<path d="M182.543 127.539C180.205 127.518 178.343 125.594 178.384 123.277V122.987L186.806 123.09V123.38C186.785 125.718 184.881 127.581 182.543 127.539Z" fill="#FEFCF7"/>
<path d="M167.438 126.629C165.348 126.608 163.672 124.891 163.714 122.801L171.266 122.904C171.245 124.973 169.528 126.649 167.438 126.629Z" fill="#FFD361"/>
<path d="M175.011 126.732C172.921 126.711 171.245 124.994 171.287 122.904L178.839 123.008C178.798 125.077 177.08 126.753 175.011 126.732Z" fill="#FFB73B"/>
<path d="M182.564 126.815C180.474 126.794 178.798 125.077 178.839 122.987L186.392 123.09C186.35 125.18 184.654 126.856 182.564 126.815Z" fill="#FFD361"/>
<path d="M190.116 126.918C188.026 126.898 186.35 125.18 186.392 123.09L193.944 123.194C193.903 125.284 192.206 126.939 190.116 126.918Z" fill="#FFB73B"/>
<path d="M197.669 127.022C195.579 127.001 193.903 125.284 193.944 123.194L201.497 123.297C201.476 125.367 199.759 127.043 197.669 127.022Z" fill="#FFD361"/>
<path d="M175.819 115C173.998 115 173.108 115 171.287 115C168.763 117.255 166.239 119.531 163.714 121.787C166.239 121.787 168.742 121.787 171.267 121.787C172.777 119.531 174.288 117.255 175.819 115Z" fill="#FFD361"/>
<path d="M180.35 115C178.529 115 177.639 115 175.818 115C174.308 117.255 172.797 119.531 171.287 121.787C173.811 121.787 176.315 121.787 178.839 121.787C179.336 119.531 179.832 117.255 180.35 115Z" fill="#FFB73B"/>
<path d="M184.881 115C183.06 115 182.171 115 180.35 115C179.853 117.255 179.336 119.531 178.839 121.787C181.364 121.787 183.867 121.787 186.392 121.787C185.874 119.531 185.378 117.255 184.881 115Z" fill="#FFD361"/>
<path d="M189.413 115C187.592 115 186.702 115 184.881 115C185.378 117.255 185.895 119.531 186.392 121.787C188.916 121.787 191.42 121.787 193.944 121.787C192.434 119.531 190.923 117.255 189.413 115Z" fill="#FFB73B"/>
<path d="M193.944 115C192.123 115 191.234 115 189.413 115C190.923 117.255 192.434 119.531 193.944 121.787C196.469 121.787 198.972 121.787 201.497 121.787C198.972 119.531 196.448 117.255 193.944 115Z" fill="#FFD361"/>
</g>
<g clip-path="url(#clip13)">
<g filter="url(#filter0_d)">
<path fill-rule="evenodd" clip-rule="evenodd" d="M169.178 216.352C169.238 216.342 169.298 216.337 169.358 216.337H196.888C196.957 216.337 197.026 216.344 197.093 216.357C198.38 216.605 198.199 218.5 196.888 218.5H169.358C168.032 218.5 167.871 216.573 169.178 216.352Z" fill="black" fill-opacity="0.01"/>
</g>
<g filter="url(#filter1_d)">
<path fill-rule="evenodd" clip-rule="evenodd" d="M173.658 216.417C173.774 216.364 173.901 216.337 174.029 216.337H190.666C190.791 216.337 190.915 216.363 191.03 216.414C191.922 216.807 191.641 218.139 190.666 218.139H174.029C173.058 218.139 172.773 216.816 173.658 216.417Z" fill="black" fill-opacity="0.01"/>
</g>
</g>
</g>
<defs>
<filter id="filter0_d" x="165.777" y="215.337" width="34.6935" height="7.16279" filterUnits="userSpaceOnUse" color-interpolation-filters="sRGB">
<feFlood flood-opacity="0" result="BackgroundImageFix"/>
<feColorMatrix in="SourceAlpha" type="matrix" values="0 0 0 0 0 0 0 0 0 0 0 0 0 0 0 0 0 0 127 0"/>
<feOffset dy="1.5"/>
<feGaussianBlur stdDeviation="1.25"/>
<feColorMatrix type="matrix" values="0 0 0 0 0 0 0 0 0 0 0 0 0 0 0 0 0 0 0.160524 0"/>
<feBlend mode="normal" in2="BackgroundImageFix" result="effect1_dropShadow"/>
<feBlend mode="normal" in="SourceGraphic" in2="effect1_dropShadow" result="shape"/>
</filter>
<filter id="filter1_d" x="170.626" y="215.337" width="23.4422" height="6.80233" filterUnits="userSpaceOnUse" color-interpolation-filters="sRGB">
<feFlood flood-opacity="0" result="BackgroundImageFix"/>
<feColorMatrix in="SourceAlpha" type="matrix" values="0 0 0 0 0 0 0 0 0 0 0 0 0 0 0 0 0 0 127 0"/>
<feOffset dy="1.5"/>
<feGaussianBlur stdDeviation="1.25"/>
<feColorMatrix type="matrix" values="0 0 0 0 0 0 0 0 0 0 0 0 0 0 0 0 0 0 0.160524 0"/>
<feBlend mode="normal" in2="BackgroundImageFix" result="effect1_dropShadow"/>
<feBlend mode="normal" in="SourceGraphic" in2="effect1_dropShadow" result="shape"/>
</filter>
<linearGradient id="paint0_linear" x1="139" y1="94.5" x2="139" y2="214.895" gradientUnits="userSpaceOnUse">
<stop stop-color="#8AD178"/>
<stop offset="1" stop-color="#52A443"/>
</linearGradient>
<linearGradient id="paint1_linear" x1="139" y1="94.5" x2="139" y2="214.895" gradientUnits="userSpaceOnUse">
<stop stop-color="#7DC86B"/>
<stop offset="1" stop-color="#4DA13F"/>
</linearGradient>
<clipPath id="clip0">
<rect width="404" height="218" fill="white" transform="translate(-26 0.5)"/>
</clipPath>
<clipPath id="clip1">
<rect width="404" height="175.5" fill="white" transform="translate(-26 0.5)"/>
</clipPath>
<clipPath id="clip2">
<rect width="89" height="141.715" fill="white" transform="matrix(-1 0 0 1 320.5 30.5833)"/>
</clipPath>
<clipPath id="clip3">
<rect width="65" height="95.5" fill="white" transform="translate(200 73.1272)"/>
</clipPath>
<clipPath id="clip4">
<rect width="74" height="131.668" fill="white" transform="translate(41.5 33.756)"/>
</clipPath>
<clipPath id="clip5">
<rect width="65" height="175.029" fill="white" transform="translate(313 0.97113)"/>
</clipPath>
<clipPath id="clip6">
<rect width="31.5" height="134.841" fill="white" transform="translate(313 40.6302)"/>
</clipPath>
<clipPath id="clip7">
<rect width="107" height="121.092" fill="white" transform="translate(-26 54.3787)"/>
</clipPath>
<clipPath id="clip8">
<rect width="35" height="132.726" fill="white" transform="translate(111 31.6408)"/>
</clipPath>
<clipPath id="clip9">
<rect width="38.5" height="38.5" fill="white" transform="translate(71 125)"/>
</clipPath>
<clipPath id="clip10">
<rect width="34" height="38.5" fill="white" transform="translate(242 128)"/>
</clipPath>
<clipPath id="clip11">
<rect width="38.5" height="43.5" fill="white" transform="translate(302.5 129)"/>
</clipPath>
<clipPath id="clip12">
<rect width="53.9225" height="45.9355" fill="white" transform="translate(155.478 115)"/>
</clipPath>
<clipPath id="clip13">
<rect width="50.6198" height="2.16279" fill="white" transform="translate(157.079 216.337)"/>
</clipPath>
</defs>
</svg>
