<svg width="28" height="25" viewBox="0 0 28 25" fill="none" xmlns="http://www.w3.org/2000/svg">
<path d="M14 2.12665C12.528 0.785316 10.6507 0.0493164 8.67202 0.0493164C6.56802 0.0493164 4.57601 0.879983 3.05468 2.39332C-0.0826518 5.54398 -0.0813186 10.472 3.05735 13.6093L12.8333 23.3853C13.06 23.784 13.4973 24.0413 14 24.0413C14.4293 24.0413 14.812 23.824 15.056 23.496L24.9427 13.6093C28.0814 10.4706 28.0813 5.54398 24.94 2.38798C23.424 0.879983 21.432 0.0493164 19.328 0.0493164C17.3507 0.0493164 15.472 0.785316 14 2.12665ZM23.0547 4.27332C25.1387 6.36798 25.14 9.63998 23.0573 11.724L14 20.7813L4.94268 11.724C2.86001 9.63998 2.86135 6.36798 4.94001 4.27865C5.95335 3.27065 7.27868 2.71598 8.67202 2.71598C10.0653 2.71598 11.3853 3.27065 12.3907 4.27598L13.0573 4.94265C13.5787 5.46398 14.4213 5.46398 14.9427 4.94265L15.6093 4.27598C17.6253 2.26398 21.0413 2.26932 23.0547 4.27332Z" fill="#469A36"/>
</svg>
