<svg width="18" height="18" viewBox="0 0 18 18" fill="none" xmlns="http://www.w3.org/2000/svg">
<path fill-rule="evenodd" clip-rule="evenodd" d="M12.7037 5.45847C12.4815 5.45847 12.3019 5.63805 12.3019 5.86028C12.3019 7.86707 10.6697 9.49749 8.66567 9.49749C6.66164 9.49749 5.03088 7.86632 5.03088 5.86028C5.03088 5.63805 4.84985 5.45847 4.62918 5.45847C4.40701 5.45847 4.22598 5.63805 4.22598 5.86028C4.22598 8.30928 6.21879 10.3034 8.66642 10.3034C11.1148 10.3034 13.1083 8.31003 13.1083 5.86028C13.1069 5.63805 12.9258 5.45847 12.7037 5.45847ZM0.956996 16.2758V14.376H16.3751V16.2758H0.956996ZM2.19053 1.51896L1.53448 0.871731L15.8118 0.856766L15.1401 1.53767C15.0638 1.61549 15.0234 1.71725 15.0234 1.82425C15.0234 1.93125 15.0675 2.03301 15.143 2.10783L15.7991 2.75506H1.52775L2.19277 2.08987C2.26907 2.01206 2.31096 1.91179 2.31096 1.8033C2.31021 1.69704 2.26608 1.59304 2.19053 1.51896ZM0.956996 3.56017H16.3751V13.5724H0.956996V3.56017ZM17.2009 3.15838C17.2009 3.00798 17.1179 2.87629 16.9952 2.80745L15.9943 1.81827L17.064 0.737058C17.1777 0.621828 17.2114 0.447488 17.1486 0.298587C17.0857 0.14819 16.9399 0.0516663 16.7775 0.0516663L0.555285 0.0673794C0.391461 0.0673794 0.244095 0.166896 0.182755 0.317293C0.121415 0.46769 0.156573 0.642031 0.271773 0.755764L1.337 1.8063L0.270277 2.8733C0.201456 2.94363 0.172282 3.03417 0.164802 3.1277C0.163306 3.13967 0.151337 3.1464 0.151337 3.15838V16.6777C0.151337 16.8999 0.332365 17.081 0.554537 17.081H16.7768C16.999 17.081 17.18 16.8999 17.18 16.6777V3.20776C17.1837 3.18905 17.2009 3.17708 17.2009 3.15838Z" fill="#449534"/>
</svg>
