<svg width="55" height="46" viewBox="0 0 55 46" fill="none" xmlns="http://www.w3.org/2000/svg">
<path d="M20.8804 19.4295V20.8779H20.7356V19.7192L20.1562 20.6917H20.0941L19.5147 19.7399V20.8986H19.3699V19.4502H19.4941L20.1148 20.5262L20.7356 19.4502H20.8804V19.4295Z" fill="#5E7D31"/>
<path d="M23.5703 20.5055H22.7633L22.5978 20.8986H22.4323L23.0944 19.4502H23.2393L23.9014 20.8986H23.7359L23.5703 20.5055ZM23.5289 20.3813L23.1772 19.595L22.8254 20.3813H23.5289Z" fill="#5E7D31"/>
<path d="M26.4672 20.8779L26.1361 20.4227C26.0947 20.4227 26.0533 20.4227 26.0119 20.4227H25.6188V20.8779H25.474V19.4295H26.0119C26.1982 19.4295 26.343 19.4709 26.4465 19.5537C26.5499 19.6364 26.612 19.7606 26.612 19.9261C26.612 20.0296 26.5913 20.133 26.5292 20.2158C26.4672 20.2986 26.3844 20.3399 26.2809 20.3813L26.6327 20.8779H26.4672ZM26.343 20.1951C26.4258 20.133 26.4465 20.0503 26.4465 19.9261C26.4465 19.802 26.4051 19.7192 26.343 19.6571C26.2602 19.595 26.1568 19.5537 26.0119 19.5537H25.6188V20.2779H26.0119C26.1568 20.2986 26.2602 20.2572 26.343 20.1951Z" fill="#5E7D31"/>
<path d="M28.7432 20.2158L28.4536 20.5261V20.8986H28.3087V19.4502H28.4536V20.3192L29.3019 19.4502H29.4675L28.8467 20.1123L29.5088 20.8986H29.3226L28.7432 20.2158Z" fill="#5E7D31"/>
<path d="M32.116 20.7538V20.8779H31.0814V19.4295H32.0746V19.5537H31.2262V20.0709H31.9711V20.1951H31.2262V20.7331H32.116V20.7538Z" fill="#5E7D31"/>
<path d="M34.0817 19.5743H33.5851V19.4502H34.7645V19.5743H34.2472V20.8986H34.1024V19.5743H34.0817Z" fill="#5E7D31"/>
<path d="M42.3997 34.224L11.8795 35.2586V29.6305L42.1101 29.1339L42.3997 34.224Z" fill="#FFD361"/>
<path d="M43.0825 35.2586V41.7972H40.0202C39.4408 40.6799 38.2821 39.9143 36.9164 39.9143C35.5715 39.9143 34.392 40.6799 33.8334 41.7972H20.6942C20.2389 40.7419 19.2044 40.0177 17.9835 40.0177C16.7627 40.0177 15.7281 40.7626 15.2729 41.7972H11.1967V36.1691L43.0825 35.2586Z" fill="#FFD361"/>
<path d="M14.7143 31.4927C13.5348 31.5341 13.6176 33.4171 14.7143 33.2308C15.8109 33.0239 15.4385 31.4721 14.7143 31.4927Z" fill="#FFB73B"/>
<path d="M14.5074 38.2589C13.3279 38.3003 13.4107 40.1833 14.5074 39.997C15.6247 39.7901 15.2523 38.2382 14.5074 38.2589Z" fill="#FFB73B"/>
<path d="M40.0202 30.6237C38.8408 30.6651 38.9235 32.548 40.0202 32.3618C41.1168 32.1549 40.7444 30.603 40.0202 30.6237Z" fill="#FFB73B"/>
<path d="M40.0409 37.3899C38.8615 37.4313 38.9442 39.3142 40.0409 39.128C41.1582 38.9211 40.7858 37.3692 40.0409 37.3899Z" fill="#FFB73B"/>
<path d="M13.0796 28.6787L23.7772 28.6994C23.7772 28.6994 22.4529 24.3748 17.8801 24.3748C13.3279 24.3541 13.0796 28.6787 13.0796 28.6787Z" fill="#FFB73B"/>
<path d="M39.5857 28.3683L32.8402 28.5339C33.8748 25.3887 36.006 24.0024 37.8062 23.4023C38.1579 23.9196 38.7373 24.2507 39.4201 24.2507C40.0616 24.2507 40.6202 23.9403 40.972 23.4644C41.1789 26.7544 39.5857 28.3683 39.5857 28.3683Z" fill="#99C76E"/>
<path d="M22.0184 25.1404C22.0184 25.1404 24.0462 26.6923 24.5221 28.6994L32.178 28.5338C32.178 28.5338 32.7367 26.2371 34.5162 24.7266C34.5162 24.7266 27.8121 19.2847 22.0184 25.1404Z" fill="#FFD361"/>
<path d="M48.5452 30.5823L43.4964 31.4927L43.3723 29.0925L48.5452 28.927V30.5823Z" fill="#FFB73B"/>
<path d="M19.4952 44.4807C20.3275 43.6484 20.3275 42.299 19.4952 41.4667C18.6629 40.6344 17.3135 40.6344 16.4812 41.4667C15.6489 42.299 15.6489 43.6484 16.4812 44.4807C17.3135 45.313 18.6629 45.313 19.4952 44.4807Z" fill="#FFB73B"/>
<path d="M36.9371 45.9355C38.3427 45.9355 39.4822 44.7961 39.4822 43.3905C39.4822 41.9849 38.3427 40.8454 36.9371 40.8454C35.5315 40.8454 34.3921 41.9849 34.3921 43.3905C34.3921 44.7961 35.5315 45.9355 36.9371 45.9355Z" fill="#FFB73B"/>
<path d="M2.50618 26.3612L3.72699 27.0027L5.00987 24.561L6.20999 25.2025L4.9271 27.6441L6.81005 28.6373L5.98238 30.1892L0.478394 27.2923L2.75448 22.9678L3.9546 23.6092L2.50618 26.3612Z" fill="#5E7D31"/>
<path d="M10.5139 21.9746L8.61022 23.7954L9.10682 25.0162L7.82394 26.2577L5.46509 19.8847L6.70659 18.6846L13.0175 21.2504L11.6933 22.5332L10.5139 21.9746ZM9.23097 21.4159L7.26526 20.5468L8.07224 22.5332L9.23097 21.4159Z" fill="#5E7D31"/>
<path d="M14.8591 18.6225L14.0107 19.057L14.7556 20.5262L13.1831 21.3124L10.369 15.7671L12.9141 14.4842C13.4107 14.2359 13.8866 14.091 14.3418 14.0704C14.797 14.0497 15.2109 14.1531 15.5626 14.36C15.9144 14.567 16.2041 14.8773 16.411 15.2912C16.6179 15.6843 16.7007 16.0981 16.6593 16.4913C16.6179 16.8844 16.473 17.2569 16.2041 17.6086L18.2939 18.7467L16.6179 19.595L14.8591 18.6225ZM14.2797 15.6222C14.0521 15.5602 13.7624 15.6222 13.4314 15.7878L12.5623 16.2223L13.39 17.8569L14.259 17.4224C14.5901 17.2569 14.797 17.0706 14.8798 16.843C14.9626 16.6154 14.9626 16.3878 14.8177 16.1188C14.7143 15.8291 14.528 15.6843 14.2797 15.6222Z" fill="#5E7D31"/>
<path d="M24.2531 17.5465L23.6531 14.2979L22.5564 17.2362L21.7908 17.381L19.763 15.1049L20.3217 18.2707L18.7284 18.5604L17.6111 12.415L19.0388 12.1667L21.8322 15.3118L23.3013 11.4011L24.729 11.1528L25.8464 17.2775L24.2531 17.5465Z" fill="#5E7D31"/>
<path d="M27.4603 17.381C27.0051 17.2155 26.6327 17.0293 26.343 16.8017L27.0258 15.5602C27.2948 15.7671 27.6052 15.9326 27.9569 16.0775C28.3087 16.2223 28.6812 16.3051 29.0329 16.3258C29.7157 16.3671 30.0675 16.243 30.0882 15.8912C30.1089 15.705 30.0054 15.5809 29.8399 15.4774C29.6537 15.3739 29.3433 15.2705 28.9295 15.1463C28.4742 15.0015 28.0811 14.8773 27.7914 14.7325C27.481 14.5877 27.2327 14.3807 27.0258 14.1117C26.8189 13.8427 26.7361 13.491 26.7775 13.0565C26.7982 12.684 26.9431 12.3529 27.1707 12.0633C27.3983 11.7736 27.7293 11.5667 28.1432 11.4011C28.5777 11.2563 29.0743 11.2149 29.6744 11.2563C30.0882 11.2977 30.4813 11.3597 30.8745 11.4839C31.2676 11.608 31.5987 11.7736 31.8884 11.9598L31.2469 13.222C30.6882 12.8496 30.1089 12.6633 29.5709 12.6013C29.2191 12.5806 28.9708 12.6013 28.8053 12.7047C28.6398 12.7875 28.557 12.9323 28.5363 13.0978C28.5156 13.2634 28.5984 13.3875 28.7846 13.491C28.9708 13.5944 29.2605 13.6979 29.6744 13.8221C30.1296 13.9669 30.5227 14.0911 30.8331 14.2359C31.1435 14.3807 31.3918 14.5877 31.5987 14.8566C31.8056 15.1256 31.8884 15.4774 31.8677 15.9119C31.847 16.2844 31.7021 16.6154 31.4745 16.9051C31.2469 17.1948 30.9159 17.4017 30.4813 17.5673C30.0468 17.7121 29.5502 17.7742 28.9501 17.7328C28.4122 17.65 27.9156 17.5466 27.4603 17.381Z" fill="#5E7D31"/>
<path d="M38.0338 13.4703C38.3649 13.7807 38.5925 14.1324 38.7166 14.5256C38.8201 14.9187 38.8201 15.3532 38.6752 15.7878C38.5304 16.2223 38.3028 16.5947 37.9924 16.843C37.682 17.112 37.2889 17.2569 36.8337 17.3189C36.3785 17.381 35.8819 17.3189 35.3439 17.1534L34.3093 16.8223L33.8127 18.3742L32.1367 17.8569L33.9989 11.9184L36.7095 12.7668C37.2682 12.9323 37.7027 13.1599 38.0338 13.4703ZM36.5233 15.8085C36.7509 15.705 36.8957 15.5188 36.9785 15.2498C37.0613 14.9808 37.0406 14.7325 36.9164 14.5256C36.7923 14.3187 36.544 14.1531 36.2129 14.0497L35.2818 13.76L34.7438 15.4981L35.6749 15.7878C36.006 15.9119 36.2957 15.9119 36.5233 15.8085Z" fill="#5E7D31"/>
<path d="M41.841 20.7951L39.6063 19.3881L38.5511 20.1537L37.0199 19.2019L42.648 15.3946L44.1171 16.3257L43.1446 23.0712L41.5927 22.0987L41.841 20.7951ZM42.0894 19.4088L42.4618 17.2982L40.7237 18.5604L42.0894 19.4088Z" fill="#5E7D31"/>
<path d="M44.1792 23.9816C44.0551 23.4023 44.0965 22.8436 44.262 22.3056C44.4482 21.7676 44.7793 21.2917 45.2552 20.8779C45.7311 20.4847 46.2484 20.2364 46.8278 20.133C47.3864 20.0502 47.9451 20.1123 48.5038 20.3192C49.0418 20.5468 49.5384 20.8986 49.9522 21.3952C50.3247 21.8297 50.573 22.2849 50.7178 22.7608C50.8626 23.2367 50.8833 23.7126 50.7799 24.1885L49.2901 23.9816C49.3935 23.3609 49.2694 22.8229 48.8969 22.3884C48.6693 22.1401 48.421 21.9538 48.152 21.8504C47.8623 21.7469 47.5727 21.7262 47.283 21.7883C46.9726 21.8504 46.7036 21.9952 46.4346 22.2228C46.1656 22.4504 45.9794 22.6987 45.8553 22.9884C45.7518 23.2781 45.7104 23.5678 45.7725 23.8575C45.8346 24.1472 45.9587 24.4368 46.1863 24.6851C46.5588 25.1197 47.0554 25.3473 47.6968 25.3473L47.6347 26.8578C47.1588 26.8785 46.6829 26.775 46.2277 26.5474C45.7725 26.3198 45.3793 26.0094 45.0069 25.5749C44.5724 25.099 44.3034 24.561 44.1792 23.9816Z" fill="#5E7D31"/>
<path d="M49.8901 32.0928L48.6072 32.5687L46.8691 27.8717L52.7042 25.6991L54.4009 30.2719L53.118 30.7478L52.0213 27.8096L51.0281 28.1821L51.98 30.7685L50.7385 31.2237L49.7866 28.6373L48.7107 29.0304L49.8901 32.0928Z" fill="#5E7D31"/>
<path d="M27.5431 12.5392C25.205 12.5185 23.3427 10.5942 23.3841 8.27669V7.987L31.8056 8.09046V8.38014C31.7849 10.7183 29.8813 12.5806 27.5431 12.5392Z" fill="#FEFCF7"/>
<path d="M12.4382 11.6287C10.3483 11.608 8.6723 9.89061 8.71369 7.80075L16.2661 7.90421C16.2455 9.97337 14.528 11.6494 12.4382 11.6287Z" fill="#FFD361"/>
<path d="M20.0113 11.7322C17.9215 11.7115 16.2454 9.99409 16.2868 7.90423L23.8393 8.00769C23.7979 10.0769 22.0805 11.7529 20.0113 11.7322Z" fill="#FFB73B"/>
<path d="M27.5638 11.815C25.4739 11.7943 23.7979 10.0769 23.8393 7.987L31.3918 8.09046C31.3504 10.1803 29.6537 11.8563 27.5638 11.815Z" fill="#FFD361"/>
<path d="M35.1163 11.9184C33.0264 11.8977 31.3504 10.1803 31.3918 8.09045L38.9442 8.19391C38.9028 10.2838 37.2061 11.9391 35.1163 11.9184Z" fill="#FFB73B"/>
<path d="M42.6687 12.0219C40.5789 12.0012 38.9028 10.2838 38.9442 8.1939L46.4967 8.29736C46.476 10.3665 44.7586 12.0425 42.6687 12.0219Z" fill="#FFD361"/>
<path d="M20.819 0C18.9981 0 18.1083 0 16.2875 0C13.7631 2.25539 11.2387 4.53148 8.71432 6.78687C11.2387 6.78687 13.7424 6.78687 16.2668 6.78687C17.7773 4.53148 19.2878 2.25539 20.819 0Z" fill="#FFD361"/>
<path d="M25.3498 0C23.5289 0 22.6392 0 20.8183 0C19.3078 2.25539 17.7973 4.53148 16.2868 6.78687C18.8112 6.78687 21.3149 6.78687 23.8393 6.78687C24.3359 4.53148 24.8325 2.25539 25.3498 0Z" fill="#FFB73B"/>
<path d="M29.8813 0C28.0604 0 27.1706 0 25.3498 0C24.8532 2.25539 24.3359 4.53148 23.8393 6.78687C26.3637 6.78687 28.8674 6.78687 31.3917 6.78687C30.8744 4.53148 30.3779 2.25539 29.8813 0Z" fill="#FFD361"/>
<path d="M34.4127 0C32.5919 0 31.7021 0 29.8812 0C30.3778 2.25539 30.8951 4.53148 31.3917 6.78687C33.9161 6.78687 36.4198 6.78687 38.9442 6.78687C37.4337 4.53148 35.9232 2.25539 34.4127 0Z" fill="#FFB73B"/>
<path d="M38.9442 0C37.1233 0 36.2336 0 34.4127 0C35.9232 2.25539 37.4337 4.53148 38.9442 6.78687C41.4686 6.78687 43.9723 6.78687 46.4967 6.78687C43.9723 4.53148 41.4479 2.25539 38.9442 0Z" fill="#FFD361"/>
</svg>
